<svg width="125" height="40" viewBox="0 0 125 40" fill="none" xmlns="http://www.w3.org/2000/svg"><rect width="40" height="40" rx="10" fill="#070707"></rect><path d="M15.2358 20.38L14.2978 18.42H14.2558V25H12.2538V15.228H14.5778L17.2518 19.848L18.1898 21.808H18.2318V15.228H20.2338V25H17.9098L15.2358 20.38ZM22.2726 17.65H24.3446V18.882H24.4146C24.5173 18.4713 24.7506 18.1353 25.1146 17.874C25.488 17.6127 25.9126 17.482 26.3886 17.482C27.322 17.482 28.0266 17.8087 28.5026 18.462C28.9786 19.1153 29.2166 20.0673 29.2166 21.318C29.2166 22.5687 28.9786 23.5253 28.5026 24.188C28.0266 24.8413 27.322 25.168 26.3886 25.168C26.146 25.168 25.9173 25.1307 25.7026 25.056C25.488 24.9907 25.292 24.8973 25.1146 24.776C24.9466 24.6453 24.802 24.496 24.6806 24.328C24.5593 24.1507 24.4706 23.964 24.4146 23.768H24.3446V27.8H22.2726V17.65ZM25.7026 23.488C26.0946 23.488 26.4166 23.3527 26.6686 23.082C26.93 22.802 27.0606 22.4287 27.0606 21.962V20.688C27.0606 20.2213 26.93 19.8527 26.6686 19.582C26.4166 19.302 26.0946 19.162 25.7026 19.162C25.3106 19.162 24.984 19.26 24.7226 19.456C24.4706 19.6427 24.3446 19.904 24.3446 20.24V22.41C24.3446 22.746 24.4706 23.012 24.7226 23.208C24.984 23.3947 25.3106 23.488 25.7026 23.488Z" fill="white"></path><circle cx="31" cy="9" r="3" fill="white"></circle><path d="M53.64 21.72L52.568 19.48H52.52V27H50.232V15.832H52.888L55.944 21.112L57.016 23.352H57.064V15.832H59.352V27H56.696L53.64 21.72ZM67.8901 27C67.4635 27 67.1061 26.8667 66.8181 26.6C66.5408 26.3333 66.3648 25.976 66.2901 25.528H66.1941C66.0661 26.072 65.7835 26.488 65.3461 26.776C64.9088 27.0533 64.3701 27.192 63.7301 27.192C62.8875 27.192 62.2421 26.968 61.7941 26.52C61.3461 26.072 61.1221 25.48 61.1221 24.744C61.1221 23.8587 61.4421 23.2027 62.0821 22.776C62.7328 22.3387 63.6128 22.12 64.7221 22.12H66.0501V21.592C66.0501 21.1867 65.9435 20.8667 65.7301 20.632C65.5168 20.3867 65.1595 20.264 64.6581 20.264C64.1888 20.264 63.8155 20.3653 63.5381 20.568C63.2608 20.7707 63.0315 21 62.8501 21.256L61.4421 20.008C61.7835 19.5067 62.2101 19.1173 62.7221 18.84C63.2448 18.552 63.9488 18.408 64.8341 18.408C66.0288 18.408 66.9248 18.6693 67.5221 19.192C68.1195 19.7147 68.4181 20.4773 68.4181 21.48V25.16H69.2021V27H67.8901ZM64.6101 25.544C65.0048 25.544 65.3408 25.4587 65.6181 25.288C65.9061 25.1173 66.0501 24.84 66.0501 24.456V23.464H64.8981C63.9701 23.464 63.5061 23.7787 63.5061 24.408V24.648C63.5061 24.9573 63.6021 25.1867 63.7941 25.336C63.9861 25.4747 64.2581 25.544 64.6101 25.544ZM73.6395 27.192C72.8288 27.192 72.1462 27.064 71.5915 26.808C71.0368 26.5413 70.5408 26.168 70.1035 25.688L71.4955 24.28C71.7942 24.6107 72.1248 24.872 72.4875 25.064C72.8502 25.256 73.2608 25.352 73.7195 25.352C74.1888 25.352 74.5142 25.2827 74.6955 25.144C74.8768 24.9947 74.9675 24.7973 74.9675 24.552C74.9675 24.1573 74.6848 23.9227 74.1195 23.848L73.2075 23.736C71.3195 23.5013 70.3755 22.6373 70.3755 21.144C70.3755 20.7387 70.4502 20.3707 70.5995 20.04C70.7595 19.6987 70.9782 19.4107 71.2555 19.176C71.5435 18.9307 71.8848 18.744 72.2795 18.616C72.6848 18.4773 73.1382 18.408 73.6395 18.408C74.0768 18.408 74.4608 18.44 74.7915 18.504C75.1328 18.5573 75.4315 18.6427 75.6875 18.76C75.9542 18.8667 76.1942 19.0053 76.4075 19.176C76.6315 19.336 76.8502 19.5173 77.0635 19.72L75.7035 21.112C75.4368 20.8453 75.1328 20.6373 74.7915 20.488C74.4608 20.328 74.1195 20.248 73.7675 20.248C73.3622 20.248 73.0742 20.312 72.9035 20.44C72.7328 20.568 72.6475 20.7387 72.6475 20.952C72.6475 21.176 72.7062 21.352 72.8235 21.48C72.9515 21.5973 73.1862 21.6827 73.5275 21.736L74.4715 21.864C76.3168 22.1093 77.2395 22.952 77.2395 24.392C77.2395 24.7973 77.1542 25.1707 76.9835 25.512C76.8128 25.8533 76.5675 26.152 76.2475 26.408C75.9382 26.6533 75.5595 26.8453 75.1115 26.984C74.6742 27.1227 74.1835 27.192 73.6395 27.192ZM78.854 15.16H81.222V20.024H81.318C81.4673 19.5867 81.7287 19.208 82.102 18.888C82.4753 18.568 82.9927 18.408 83.654 18.408C84.518 18.408 85.1687 18.696 85.606 19.272C86.054 19.848 86.278 20.6693 86.278 21.736V27H83.91V21.928C83.91 21.384 83.8247 20.984 83.654 20.728C83.4833 20.4613 83.1793 20.328 82.742 20.328C82.55 20.328 82.3633 20.3547 82.182 20.408C82.0007 20.4507 81.8353 20.5253 81.686 20.632C81.5473 20.7387 81.4353 20.872 81.35 21.032C81.2647 21.1813 81.222 21.3573 81.222 21.56V27H78.854V15.16ZM88.3853 18.6H90.7533V20.008H90.8333C90.9506 19.5387 91.2173 19.1547 91.6333 18.856C92.0599 18.5573 92.5453 18.408 93.0893 18.408C94.1559 18.408 94.9613 18.7813 95.5052 19.528C96.0492 20.2747 96.3212 21.3627 96.3212 22.792C96.3212 24.2213 96.0492 25.3147 95.5052 26.072C94.9613 26.8187 94.1559 27.192 93.0893 27.192C92.8119 27.192 92.5506 27.1493 92.3053 27.064C92.0599 26.9893 91.8359 26.8827 91.6333 26.744C91.4413 26.5947 91.2759 26.424 91.1373 26.232C90.9986 26.0293 90.8973 25.816 90.8333 25.592H90.7533V30.2H88.3853V18.6ZM92.3053 25.272C92.7533 25.272 93.1213 25.1173 93.4093 24.808C93.7079 24.488 93.8573 24.0613 93.8573 23.528V22.072C93.8573 21.5387 93.7079 21.1173 93.4093 20.808C93.1213 20.488 92.7533 20.328 92.3053 20.328C91.8573 20.328 91.4839 20.44 91.1853 20.664C90.8973 20.8773 90.7533 21.176 90.7533 21.56V24.04C90.7533 24.424 90.8973 24.728 91.1853 24.952C91.4839 25.1653 91.8573 25.272 92.3053 25.272ZM103.08 25.592H103C102.925 25.8053 102.824 26.008 102.696 26.2C102.578 26.392 102.424 26.5627 102.232 26.712C102.04 26.8613 101.81 26.9787 101.544 27.064C101.288 27.1493 100.989 27.192 100.648 27.192C99.7836 27.192 99.1276 26.9093 98.6796 26.344C98.2423 25.768 98.0236 24.9467 98.0236 23.88V18.6H100.392V23.672C100.392 24.184 100.482 24.5787 100.664 24.856C100.845 25.1333 101.154 25.272 101.592 25.272C101.773 25.272 101.954 25.2453 102.136 25.192C102.317 25.1387 102.477 25.064 102.616 24.968C102.754 24.8613 102.866 24.7333 102.952 24.584C103.037 24.4347 103.08 24.2587 103.08 24.056V18.6H105.448V27H103.08V25.592ZM110.499 27.192C109.688 27.192 109.006 27.064 108.451 26.808C107.896 26.5413 107.4 26.168 106.963 25.688L108.355 24.28C108.654 24.6107 108.984 24.872 109.347 25.064C109.71 25.256 110.12 25.352 110.579 25.352C111.048 25.352 111.374 25.2827 111.555 25.144C111.736 24.9947 111.827 24.7973 111.827 24.552C111.827 24.1573 111.544 23.9227 110.979 23.848L110.067 23.736C108.179 23.5013 107.235 22.6373 107.235 21.144C107.235 20.7387 107.31 20.3707 107.459 20.04C107.619 19.6987 107.838 19.4107 108.115 19.176C108.403 18.9307 108.744 18.744 109.139 18.616C109.544 18.4773 109.998 18.408 110.499 18.408C110.936 18.408 111.32 18.44 111.651 18.504C111.992 18.5573 112.291 18.6427 112.547 18.76C112.814 18.8667 113.054 19.0053 113.267 19.176C113.491 19.336 113.71 19.5173 113.923 19.72L112.563 21.112C112.296 20.8453 111.992 20.6373 111.651 20.488C111.32 20.328 110.979 20.248 110.627 20.248C110.222 20.248 109.934 20.312 109.763 20.44C109.592 20.568 109.507 20.7387 109.507 20.952C109.507 21.176 109.566 21.352 109.683 21.48C109.811 21.5973 110.046 21.6827 110.387 21.736L111.331 21.864C113.176 22.1093 114.099 22.952 114.099 24.392C114.099 24.7973 114.014 25.1707 113.843 25.512C113.672 25.8533 113.427 26.152 113.107 26.408C112.798 26.6533 112.419 26.8453 111.971 26.984C111.534 27.1227 111.043 27.192 110.499 27.192ZM115.713 15.16H118.081V20.024H118.177C118.327 19.5867 118.588 19.208 118.961 18.888C119.335 18.568 119.852 18.408 120.513 18.408C121.377 18.408 122.028 18.696 122.465 19.272C122.913 19.848 123.137 20.6693 123.137 21.736V27H120.769V21.928C120.769 21.384 120.684 20.984 120.513 20.728C120.343 20.4613 120.039 20.328 119.601 20.328C119.409 20.328 119.223 20.3547 119.041 20.408C118.86 20.4507 118.695 20.5253 118.545 20.632C118.407 20.7387 118.295 20.872 118.209 21.032C118.124 21.1813 118.081 21.3573 118.081 21.56V27H115.713V15.16Z" fill="#070707"></path></svg>